PathFileType	4	(X/Y/Z)	C:\Users\GVLAB1\Desktop\Emotion\trc\EMLATRE05.4.trc																																																																																																																									
DataRate	CameraRate	NumFrames	NumMarkers	Units	OrigDataRate	OrigDataStartFrame	OrigNumFrames																																																																																																																					
30	30	6	41	mm	30	1	302																																																																																																																					
Frame#	Time	EMLA_LFHD			EMLA_RFHD			EMLA_LBHD			EMLA_RBHD			EMLA_LFTShould			EMLA_RFTShould			EMLA_LRRShould			EMLA_RRRShould			EMLA_T10			EMLA_STRN			EMLA_TRUN			EMLA_LSHO			EMLA_LUPA			EMLA_LELB			EMLA_LFRM			EMLA_LWRA			EMLA_LWRB			EMLA_LFIN			EMLA_RSHO			EMLA_RUPA			EMLA_RELB			EMLA_RFRM			EMLA_RWRA			EMLA_RWRB			EMLA_RFIN			EMLA_LFWT			EMLA_RFWT			EMLA_LBWT			EMLA_RBWT			EMLA_LHTI			EMLA_LKNE			EMLA_LSHN			EMLA_LANK			EMLA_LHEE			EMLA_LTOE			EMLA_RTHI			EMLA_RKNE			EMLA_RSHN			EMLA_RANK			EMLA_RHEE			EMLA_RTOE		
		X1	Y1	Z1	X2	Y2	Z2	X3	Y3	Z3	X4	Y4	Z4	X5	Y5	Z5	X6	Y6	Z6	X7	Y7	Z7	X8	Y8	Z8	X9	Y9	Z9	X10	Y10	Z10	X11	Y11	Z11	X12	Y12	Z12	X13	Y13	Z13	X14	Y14	Z14	X15	Y15	Z15	X16	Y16	Z16	X17	Y17	Z17	X18	Y18	Z18	X19	Y19	Z19	X20	Y20	Z20	X21	Y21	Z21	X22	Y22	Z22	X23	Y23	Z23	X24	Y24	Z24	X25	Y25	Z25	X26	Y26	Z26	X27	Y27	Z27	X28	Y28	Z28	X29	Y29	Z29	X30	Y30	Z30	X31	Y31	Z31	X32	Y32	Z32	X33	Y33	Z33	X34	Y34	Z34	X35	Y35	Z35	X36	Y36	Z36	X37	Y37	Z37	X38	Y38	Z38	X39	Y39	Z39	X40	Y40	Z40	X41	Y41	Z41
																																																																																																																												
1	0	242.53262	1626.5459	-1901.05371	74.03264	1608.65991	-1909.37488	261.57211	1645.28247	-2050.67456	67.62628	1628.37573	-2061.26123	257.92349	1418.3031	-1974.22754	107.5593	1409.98291	-1967.22583	248.30112	1452.53577	-2130.13965	86.69004	1443.64197	-2121.93604	177.74825	1276.02527	-2170.06128	183.86974	1349.80481	-1929.66724	180.62077	1246.5614	-1909.92041	382.63684	1433.12512	-2029.10852	434.63177	1245.82764	-2027.96619	442.18799	1100.70313	-2019.02087	437.13464	966.41278	-2003.58398	347.67181	830.04108	-1919.85913	406.99496	805.73212	-1975.07239	397.08878	777.12646	-1911.65588	-19.28951	1433.05432	-2028.48499	-74.95615	1238.01733	-2007.78137	-85.69371	1092.36121	-2012.59534	-84.37423	989.85443	-2006.69482	0.43277	841.15179	-1900.05737	-55.67369	815.18866	-1958.45947	-57.53764	789.58667	-1898.65112	281.34863	993.35376	-1932.16687	46.05276	983.48785	-1944.91833	258.54117	1014.54889	-2132.93677	82.21539	1017.73578	-2127.21167	301.23175	726.6889	-2118.95093	310.50604	522.81024	-2077.69214	284.88821	340.23398	-2066.83789	286.58011	164.21179	-2139.59229	219.43568	84.49062	-2196.58252	260.23444	74.24996	-1999.50671	54.10185	710.87286	-2134.38452	21.79596	511.36209	-2072.08398	68.07227	290.74042	-2060.48999	31.02888	127.8061	-2133.78931	85.07481	77.55501	-2189.5647	58.7329	71.60249	-1986.85449
2	0.005	243.67522	1626.46704	-1901.04529	75.21332	1608.5907	-1909.48523	262.77621	1645.28516	-2050.59131	68.99531	1628.37585	-2061.34009	258.9743	1418.32092	-1974.24707	108.61897	1410.06287	-1967.27039	249.55835	1452.61243	-2130.37476	87.95181	1443.66797	-2122.06128	178.95271	1275.97876	-2170.01978	184.72574	1349.83264	-1929.64917	181.55661	1246.75256	-1909.8186	383.76077	1433.01892	-2028.92944	435.50891	1245.64624	-2027.16675	442.73315	1100.45667	-2017.63806	437.11365	966.25665	-2001.51685	346.59073	830.86127	-1916.96692	405.89807	805.80322	-1971.94348	395.85233	777.76819	-1908.43286	-18.15283	1433.27515	-2028.703	-73.95518	1238.24329	-2007.66833	-84.55964	1092.45471	-2012.35986	-83.26385	990.03851	-2006.47351	1.57794	841.52948	-1899.62402	-54.53718	815.47626	-1958.04675	-56.3773	789.93134	-1898.19714	282.05676	993.35651	-1931.94556	46.89219	983.5929	-1944.89075	259.55737	1014.42834	-2132.77295	83.21402	1017.75397	-2127.17139	302.10626	726.63995	-2118.7605	310.98813	522.77423	-2077.55566	285.17905	340.16898	-2066.71436	286.74741	164.1835	-2139.50586	219.51527	84.52132	-2196.57935	260.20541	74.22154	-1999.48547	54.99551	710.83685	-2134.17383	22.30096	511.36169	-2071.93628	68.32541	290.7338	-2060.38477	31.14632	127.80993	-2133.7124	85.14372	77.53697	-2189.55176	58.72957	71.59065	-1986.85315
3	0.01	244.90221	1626.40991	-1900.95886	76.34351	1608.62183	-1909.58606	264.1319	1645.24609	-2050.521	70.26445	1628.4447	-2061.52368	260.04507	1418.34583	-1974.07031	109.66879	1410.13855	-1967.28394	250.96062	1452.47253	-2130.3667	89.25954	1443.68481	-2122.20483	180.20087	1275.89734	-2169.96191	185.46852	1349.82605	-1929.61755	182.43388	1246.76782	-1909.81177	384.98605	1432.95898	-2028.63135	436.39084	1245.47009	-2026.26709	443.26416	1100.17163	-2016.22498	436.93848	965.90118	-1999.37134	345.51801	831.61713	-1914.42615	404.84937	805.90033	-1969.07471	394.49146	778.27789	-1905.39624	-16.98272	1433.43518	-2028.9502	-72.90987	1238.3717	-2007.49927	-83.39391	1092.37659	-2012.33545	-82.2225	990.15356	-2006.47058	2.54138	841.74835	-1899.57324	-53.43887	815.6424	-1957.90723	-55.32483	790.1496	-1898.07202	282.9649	993.20374	-1931.80188	47.64202	983.63593	-1944.87256	260.56787	1014.35052	-2132.52222	84.16125	1017.74841	-2127.10474	302.96237	726.60364	-2118.5918	311.49066	522.67773	-2077.34668	285.46838	340.06888	-2066.62915	286.88525	164.15155	-2139.4458	219.60461	84.55554	-2196.61255	260.20938	74.23221	-1999.49402	55.91654	710.8421	-2134.03296	22.77256	511.43045	-2071.89917	68.59606	290.73352	-2060.33301	31.25134	127.89354	-2133.72803	85.22469	77.57185	-2189.52124	58.71894	71.59806	-1986.86035
4	0.015	245.82352	1626.31738	-1900.71179	77.37488	1608.68091	-1909.70361	265.65405	1645.13477	-2050.35229	71.58418	1628.54749	-2061.65186	261.04803	1418.55237	-1974.0647	110.75236	1410.24597	-1967.20703	252.29475	1452.32678	-2129.92651	90.58274	1443.71838	-2122.28564	181.54163	1275.85364	-2169.83398	186.95502	1349.75171	-1929.05896	183.263	1246.84045	-1909.6012	386.15585	1432.89661	-2028.1759	437.24008	1245.3374	-2025.23108	443.79172	1099.95276	-2014.7887	436.85901	965.7146	-1997.44983	344.40393	832.28308	-1912.23218	403.96796	806.01318	-1966.59204	393.22723	778.74005	-1902.78821	-15.78358	1433.56458	-2029.14807	-71.65667	1238.4519	-2008.1449	-82.40542	1092.5387	-2012.60901	-81.18079	990.29211	-2006.77222	3.59345	841.96631	-1899.72693	-52.4673	815.83081	-1958.1842	-54.37689	790.34302	-1898.3114	284.01819	992.99078	-1931.51892	48.45151	983.62286	-1944.90601	261.59259	1014.36774	-2132.26489	85.24074	1017.79852	-2126.96021	303.71378	726.59039	-2118.39355	311.98819	522.54773	-2077.13794	285.83594	340.02872	-2066.57056	287.09039	164.05415	-2139.40015	219.69382	84.57064	-2196.63184	260.21786	74.24106	-1999.50635	56.58918	710.94122	-2134.01343	23.23273	511.51675	-2071.95996	68.77541	290.73465	-2060.31079	31.35321	127.91973	-2133.7019	85.29585	77.53938	-2189.51587	58.72787	71.59352	-1986.85608
5	0.02	247.04115	1626.2522	-1900.54736	78.46216	1608.72546	-1909.78711	266.71231	1645.03381	-2049.94312	72.98003	1628.62244	-2061.70313	262.25128	1418.49182	-1973.54565	111.79032	1410.46045	-1967.30774	253.69051	1452.3645	-2130.00244	91.95541	1443.67188	-2122.29761	182.90901	1275.74609	-2169.63306	187.6442	1350.12549	-1929.15601	184.12148	1246.96362	-1909.38501	387.3689	1432.82581	-2027.63855	438.12354	1245.20703	-2024.19336	444.37531	1099.7937	-2013.44751	437.01874	965.69952	-1995.8241	343.64044	832.8028	-1910.36243	403.23029	806.05377	-1964.46594	392.14038	779.00354	-1900.59399	-14.59403	1433.71094	-2029.38745	-70.68647	1238.50012	-2008.30383	-81.45196	1092.92981	-2013.25415	-80.25887	990.44977	-2007.26453	4.77929	841.98065	-1900.25537	-51.59747	815.92493	-1958.69324	-53.62457	790.44122	-1898.84509	284.96387	992.9707	-1931.0979	49.38461	983.6358	-1944.75049	262.64359	1014.2901	-2131.90894	86.3094	1017.83173	-2126.84619	304.56326	726.54114	-2118.11035	312.54642	522.49683	-2077.0144	286.07037	339.97537	-2066.45605	287.25903	163.97729	-2139.3584	219.81483	84.59592	-2196.66846	260.19482	74.21782	-1999.51282	57.26412	710.89233	-2133.87256	23.76379	511.48837	-2071.87207	69.04631	290.70065	-2060.27856	31.45757	127.98583	-2133.74487	85.35676	77.55705	-2189.50952	58.72687	71.59984	-1986.86011
6	0.025	248.08104	1626.14526	-1900.28149	79.52173	1608.75964	-1909.87952	268.12265	1645.11023	-2049.79175	74.27762	1628.62842	-2061.66406	263.19482	1418.48157	-1973.35083	112.87105	1410.47595	-1967.21948	255.14017	1452.13147	-2129.47485	93.39802	1443.65979	-2122.35156	184.34731	1275.68042	-2169.44312	188.46857	1350.32166	-1929.15234	185.02962	1246.95276	-1909.20874	388.59378	1432.68164	-2027.00562	439.12393	1245.06433	-2023.1825	445.04727	1099.54639	-2012.2041	437.18262	965.34668	-1994.25037	343.08334	833.10779	-1908.89844	402.79773	805.99811	-1962.70911	391.35822	779.14905	-1898.79895	-13.42923	1433.81372	-2029.67822	-69.66208	1238.69617	-2008.71887	-80.47539	1092.9624	-2013.62354	-79.27717	990.63666	-2007.81213	5.34996	841.94928	-1900.90613	-50.92312	815.95483	-1959.44983	-52.99855	790.38159	-1899.62134	285.41101	993.0954	-1930.55005	50.09614	983.7334	-1944.77161	263.77216	1014.18854	-2131.54614	87.39609	1017.82501	-2126.73047	305.43616	726.50427	-2117.85449	312.9776	522.35205	-2076.77759	286.39084	339.92862	-2066.40454	287.39743	163.96349	-2139.34546	219.89442	84.65648	-2196.67725	260.17377	74.21846	-1999.47559	58.08072	710.89276	-2133.76733	24.2557	511.51181	-2071.63452	69.29366	290.69534	-2060.14697	31.58547	127.96593	-2133.65454	85.45228	77.59056	-2189.46411	58.75454	71.63215	-1986.82898
